<svg version="1.2" xmlns="http://www.w3.org/2000/svg" viewBox="0 0 1552 1552" width="1552" height="1552"><style>.a{fill:#4d148c}.b{fill:#fa4616}.c{fill:#fff}</style><path fill-rule="evenodd" class="a" d="m776.1 1552c-429 0-775.8-346.8-775.8-775.9 0-429 346.8-775.8 775.8-775.8 429.1 0 775.9 346.8 775.9 775.8 0 429.1-346.8 775.9-775.9 775.9z"/><path fill-rule="evenodd" class="b" d="m1207.7 727.8c107.3-35.4 185.5-135 189.1-253.5h-112.1c-4.1 84.2-72.1 151.4-156.2 155 12.3 25.1 20.7 52.8 24.9 81.8q1 7.7 1.7 15.6 0.3 3.9 0.6 8c0.2 5.1 0.5 10 0.5 15.1 0 25.7-3.6 50.6-10 73.9 64.6 21.8 111.6 82.9 111.6 155q0 2.3 0 4.3h111.8q0.3-2 0.3-4.3c0-111.6-66.7-207.8-162.2-250.9z"/><path fill-rule="evenodd" class="b" d="m1160.5 387.1c-16.4-16.4-38.2-25.4-61.3-25.4-23.1 0-44.9 9-61.3 25.4-16.1 16.2-25.4 38-25.4 61.1 0 23.3 9.3 44.8 25.4 61.3 16.4 16.4 38.2 25.4 61.3 25.4 23.1 0 44.9-9 61.3-25.4 16.5-16.5 25.4-38 25.4-61.3 0-23.1-8.9-44.9-25.4-61.1z"/><path fill-rule="evenodd" class="c" d="m395.8 517.4l-65.4 128.3-62.8-127.8-0.3-0.5h-129l111.6 224.2 0.5 1.3h30.5l-122.4 240.1h126.2l179.9-353.5h135.7l-180.1 353.5h129.3l180.1-353.5h98.5l56.9-112.1z"/><path fill-rule="evenodd" class="b" d="m885 517.4c126.5 2.3 228.1 105.5 228.1 232.4 0 128.3-103.9 232.4-232.4 232.4-72.4 0-137.3-33.3-179.9-85.4h0.3l79.8-79.8c21.5 32.1 58.2 53.1 99.8 53.1 66.7 0 120.5-53.8 120.5-120.3 0-66.4-53.8-120.3-120.5-120.3h-52.6z"/><path fill-rule="evenodd" class="c" d="m535.6 1107.7v56.4h-13.6v-55.4q0-26.9-23.1-26.9-8.9 0-15.6 6.9-6.9 7.7-7.7 20v55.4h-13.6v-91.8h13.6v13.6q4.6-8 11.5-11.8 7.2-4.4 16-4.4c21.5 0 32.5 12.9 32.5 38zm44.4-35.4h21.6v11.8h-21.6v58.5c0 3.6 0.5 5.9 1.8 7.4 1.3 1.3 3.3 2.3 6.4 2.3h11.3v11.8h-13.3c-7.2 0-12.3-1.8-15.4-5.9-2.8-3.6-4.1-8.7-4.1-15.6v-58.5h-17.7v-11.8h17.7v-23.9l13.3-5.9zm104.7 12.6c6.4 8.7 9.7 21.6 10 37.5h-69c0.7 10.2 3.1 18.2 7.9 23.8 4.6 5.9 11.3 8.7 19.8 8.7 6.9 0 12.8-2 17.2-5.6 3.8-3.3 6.6-8.2 8.9-14.6h13.6c-2 8.9-6.1 16.1-12 21.8-7.2 6.6-16.4 10.2-27.7 10.2-12.6 0-22.9-4.3-30.3-12.8-7.7-9-11.5-20.8-11.5-35.6 0-13.6 3.6-24.9 11-33.9 7.4-9.8 17.4-14.4 30.3-14.4 13.8 0 24.6 4.9 31.8 14.9zm-50.3 4.9c-4.9 5.4-7.4 12.5-8.5 21.5h54.7c-1.6-19.7-10.8-29.5-27.5-29.5q-11.8 0-18.7 8zm126.7-17.7v14.1c-4.3-1.3-8.7-1.8-13.1-1.8-6.6 0-12.5 3.1-17.1 9.5-4.7 5.9-7 13.1-7 21.8v48.5h-13.3v-91.9h13.3v16.2c2.6-5.4 5.7-9.8 9.3-12.6q6.9-5.9 15.9-5.9 7.1 0 12 2.1zm84.9 35.6v56.5h-13.6v-55.4c0-18-7.7-26.7-22.8-26.7q-9.2 0-15.9 6.9c-4.6 4.9-7.2 11.6-7.7 19.8v55.4h-13.6v-91.9h13.6v13.6q4.6-7.7 11.8-11.8 6.9-4.1 15.7-4.1c21.5 0 32.5 12.6 32.5 37.7zm139.1-35.4h21.8v12.1h-21.8v58.5c0 3.3 0.5 5.9 1.8 7.2 1.2 1.5 3.6 2.3 6.6 2.3h11.1v11.8h-13.1c-7.2 0-12.6-1.8-15.4-5.7-3.1-3.6-4.4-8.7-4.4-15.6v-58.5h-17.7v-12.1h17.7v-23.6l13.4-5.9zm54.6 0v91.9h-13.3v-91.9zm0.5-31.8q3.1 2.8 3.1 7.7c0 2.8-1.1 5.4-3.1 7.5q-2.8 3-7.2 3-4.4 0-7.2-3c-2-2.1-3.1-4.7-3.1-7.5q0-5.1 3.1-7.7c1.8-2 4.4-2.8 7.2-2.8 2.8 0 5.1 0.8 7.2 2.8zm95.4 43.4c7.5 9.2 11 20.5 11 34.4 0 13.5-3.5 25.1-11 33.8q-11.8 14.4-31.3 14.4c-13.3 0-23.6-4.6-31.3-14.4-7.4-8.7-11.3-20.3-11.3-33.8 0-13.9 3.9-25.2 11.3-34.4 7.7-9.5 18-14.1 31.3-14.1 12.8 0 23.4 4.6 31.3 14.1zm-53.1 9q-6.9 10-6.9 25.4c0 10 2.3 18.4 6.9 25.1q7.7 11.3 21.8 11.3 13.6 0 21.8-11.3c4.6-6.7 6.9-15.1 6.9-25.1q0-15.4-6.9-25.4-8.2-11.3-21.8-11.3-14.1 0-21.8 11.3zm155.5 14.6v56.7h-13.6v-55.4c0-18-7.7-27-22.9-27q-9.2 0-15.9 7-6.9 7.1-7.7 20v55.4h-13.6v-91.9h13.6v13.4q4.7-7.7 11.6-11.6 7.2-4.3 15.9-4.3c21.5 0 32.6 12.5 32.6 37.7zm86.9-27.5c4.9 6.2 7.7 14.4 7.7 25.2v59h-12.8v-15.7c-3.3 5.2-7.7 9.3-13.3 12.3-6.5 3.9-13.6 5.7-21.8 5.7-8.8 0-15.7-2.3-21.1-6.9-5.4-4.7-7.9-11.1-7.9-18.5 0-10.5 3.8-18.2 12-23.6 7-4.9 17.2-7.7 30.3-7.7l21-0.5v-4.6q0-23.4-22.8-23.1c-6.4 0-11.5 1-15.6 4.1-4.7 2.8-7.5 7.2-9 13.1l-13.4-1.1c2.1-9.7 6.4-16.9 13.6-21.5 6.4-4.4 14.9-6.4 25.2-6.4 12.5 0 21.8 3.3 27.9 10.2zm-25.9 40.3c-19.7 0.5-29.5 7.2-29.5 20.5 0 4.1 1.6 7.7 4.9 10.5 3.3 2.6 7.7 4.1 13.1 4.1 8.4 0 15.6-3 22-8.7 6.2-5.4 9.5-11.8 9.5-19v-7.7zm70.8-85.6v129.3h-13.3v-129.3zm-932.7 37.4v91.9h-13.6v-91.9zm0.5-31.8q3.1 2.8 3.1 7.4 0 4.7-3.1 7.7c-2.1 2.1-4.4 3.1-7.2 3.1-3.1 0-5.4-1-7.4-3.1-2.1-2-2.9-4.6-2.9-7.7 0-3 0.8-5.6 2.9-7.4 2-2 4.3-2.8 7.4-2.8 2.8 0 5.1 0.8 7.2 2.8z"/><path class="c" d="m933 1080c5.1 6.1 7.7 14.6 7.7 25.1v59h-12.6v-15.4c-3.6 4.9-7.9 9-13.3 12.3-6.7 3.6-13.9 5.7-22.1 5.7q-13.1 0-20.8-6.9c-5.3-4.9-8.2-11.1-8.2-18.5 0-10.5 3.9-18.5 12.1-23.6 7.2-5.1 17.2-7.7 30.5-8l20.8-0.2v-4.9q0-23.1-22.8-23.1c-6.4 0-11.6 1.3-15.7 4.1-4.6 2.9-7.4 7.2-8.7 13.1l-13.3-1c1.8-9.5 6.4-16.9 13.3-21.6 6.4-4.1 14.9-6.4 25.4-6.4 12.3 0 21.5 3.4 27.7 10.3zm-25.9 40.5c-19.8 0.3-29.5 6.9-29.5 20.3 0 4.3 1.5 7.7 4.9 10.5 3.3 2.8 7.9 4.1 13.3 4.1 8.2 0 15.4-2.8 21.8-8.5 6.4-5.3 9.5-12 9.5-18.9v-8z"/></svg>